<?xml version="1.0" encoding="UTF-8" standalone="no"?>
<!DOCTYPE svg PUBLIC "-//W3C//DTD SVG 1.1//EN" "http://www.w3.org/Graphics/SVG/1.1/DTD/svg11.dtd">
<svg width="100%" height="100%" viewBox="0 0 1772 2953" version="1.1" xmlns="http://www.w3.org/2000/svg" xmlns:xlink="http://www.w3.org/1999/xlink" xml:space="preserve" xmlns:serif="http://www.serif.com/" style="fill-rule:evenodd;clip-rule:evenodd;stroke-linejoin:round;stroke-miterlimit:2;">
    <g transform="matrix(1,0,0,1,-8387.124236,-341.389193)">
        <g transform="matrix(1,0,0,1,-0.535433,0)">
            <g transform="matrix(0,1.050298,-1.050298,0,10069.616502,-3432.063183)">
                <path d="M3592.745,1039.139L4155.015,1601.409L3592.745,1601.409L3592.745,1039.139Z" style="fill:rgb(229,229,229);fill-opacity:0.4;"/>
            </g>
        </g>
        <g transform="matrix(1,0,0,1,-0.535433,0)">
            <g transform="matrix(-1.050298,-0,0,-1.050298,13342.214407,2613.897207)">
                <path d="M3592.745,1039.139L4155.015,1601.409L3592.745,1601.409L3592.745,1039.139Z" style="fill:rgb(229,229,229);fill-opacity:0.8;"/>
            </g>
        </g>
        <g transform="matrix(1,0,0,1,-0.535433,0)">
            <g transform="matrix(0,1.050298,-1.050298,0,10660.167683,-1660.409639)">
                <path d="M3592.745,1039.139L4155.015,1601.409L3592.745,1601.409L3592.745,1039.139Z" style="fill:rgb(229,229,229);fill-opacity:0.8;"/>
            </g>
        </g>
        <g transform="matrix(1,0,0,1,-0.535433,0)">
            <g transform="matrix(0,1.050298,1.050298,-0,8477.35638,-1660.409639)">
                <path d="M3592.745,1039.139L4155.015,1601.409L3592.745,1601.409L3592.745,1039.139Z" style="fill:rgb(229,229,229);fill-opacity:0.6;"/>
            </g>
        </g>
        <g transform="matrix(1,0,0,1,-0.535433,0)">
            <g transform="matrix(-1.050298,0,0,1.050298,13932.765588,431.085903)">
                <path d="M3592.745,1039.139L4155.015,1601.409L3592.745,1601.409L3592.745,1039.139Z" style="fill:rgb(229,229,229);fill-opacity:0.4;"/>
            </g>
        </g>
        <g transform="matrix(1,0,0,1,-0.535433,0)">
            <g transform="matrix(-1.050298,0,0,1.050298,13932.765588,-159.465278)">
                <path d="M3592.745,1039.139L4155.015,1601.409L3592.745,1601.409L3592.745,1039.139Z" style="fill:rgb(229,229,229);fill-opacity:0.6;"/>
            </g>
        </g>
        <g transform="matrix(1,0,0,1,-0.535433,0)">
            <g transform="matrix(-1.050298,0,0,1.050298,13342.214407,-750.016459)">
                <path d="M3592.745,1039.139L4155.015,1601.409L3592.745,1601.409L3592.745,1039.139Z" style="fill:rgb(229,229,229);fill-opacity:0.4;"/>
            </g>
        </g>
        <g transform="matrix(1,0,0,1,-0.535433,0)">
            <g transform="matrix(-0,-1.050298,1.050298,-0,7296.254018,5886.495111)">
                <path d="M3592.745,1039.139L4155.015,1601.409L3592.745,1601.409L3592.745,1039.139Z" style="fill:rgb(229,229,229);fill-opacity:0.5;"/>
            </g>
        </g>
        <g transform="matrix(1,0,0,1,-0.535433,0)">
            <g transform="matrix(-0,-1.050298,1.050298,-0,7296.254018,7067.597474)">
                <path d="M3592.745,1039.139L4155.015,1601.409L3592.745,1601.409L3592.745,1039.139Z" style="fill:rgb(229,229,229);fill-opacity:0.6;"/>
            </g>
        </g>
        <g transform="matrix(1,0,0,1,-0.535433,0)">
            <g transform="matrix(1.050298,-0,0,1.050298,5795.309656,1612.188266)">
                <path d="M3592.745,1039.139L4155.015,1601.409L3592.745,1601.409L3592.745,1039.139Z" style="fill:rgb(229,229,229);fill-opacity:0.3;"/>
            </g>
        </g>
    </g>
</svg>
