<?xml version="1.0" encoding="UTF-8" standalone="no"?>
<!DOCTYPE svg PUBLIC "-//W3C//DTD SVG 1.1//EN" "http://www.w3.org/Graphics/SVG/1.1/DTD/svg11.dtd">
<svg width="100%" height="100%" viewBox="0 0 1772 2953" version="1.1" xmlns="http://www.w3.org/2000/svg" xmlns:xlink="http://www.w3.org/1999/xlink" xml:space="preserve" xmlns:serif="http://www.serif.com/" style="fill-rule:evenodd;clip-rule:evenodd;stroke-linejoin:round;stroke-miterlimit:2;">
    <g transform="matrix(1,0,0,1,-5721.981891,-341.389193)">
        <g transform="matrix(1,0,0,1,-0.535433,0)">
            <g transform="matrix(-1.050298,-0,0,-1.050298,10086.52088,3204.448388)">
                <path d="M3592.745,1039.139L4155.015,1601.409L3592.745,1601.409L3592.745,1039.139Z" style="fill:rgb(229,229,229);fill-opacity:0.4;"/>
            </g>
        </g>
        <g transform="matrix(1,0,0,1,-0.535433,0)">
            <g transform="matrix(-1.050298,-0,0,-1.050298,10677.072061,4385.55075)">
                <path d="M3592.745,1039.139L4155.015,1601.409L3592.745,1601.409L3592.745,1039.139Z" style="fill:rgb(229,229,229);fill-opacity:0.8;"/>
            </g>
        </g>
        <g transform="matrix(1,0,0,1,-0.535433,0)">
            <g transform="matrix(0,1.050298,-1.050298,0,7995.025337,-1660.409639)">
                <path d="M3592.745,1039.139L4155.015,1601.409L3592.745,1601.409L3592.745,1039.139Z" style="fill:rgb(229,229,229);fill-opacity:0.3;"/>
            </g>
        </g>
        <g transform="matrix(1,0,0,1,-0.535433,0)">
            <g transform="matrix(-0,-1.050298,-1.050298,0,7995.025337,5295.94393)">
                <path d="M3592.745,1039.139L4155.015,1601.409L3592.745,1601.409L3592.745,1039.139Z" style="fill:rgb(229,229,229);fill-opacity:0.6;"/>
            </g>
        </g>
        <g transform="matrix(1,0,0,1,-0.535433,0)">
            <g transform="matrix(0,1.050298,1.050298,-0,5812.214034,-2250.96082)">
                <path d="M3592.745,1039.139L4155.015,1601.409L3592.745,1601.409L3592.745,1039.139Z" style="fill:rgb(229,229,229);fill-opacity:0.7;"/>
            </g>
        </g>
        <g transform="matrix(1,0,0,1,-0.535433,0)">
            <g transform="matrix(-1.050298,0,0,1.050298,11267.623242,-750.016459)">
                <path d="M3592.745,1039.139L4155.015,1601.409L3592.745,1601.409L3592.745,1039.139Z" style="fill:rgb(229,229,229);fill-opacity:0.6;"/>
            </g>
        </g>
        <g transform="matrix(1,0,0,1,-0.535433,0)">
            <g transform="matrix(-1.050298,0,0,1.050298,10677.072061,-750.016459)">
                <path d="M3592.745,1039.139L4155.015,1601.409L3592.745,1601.409L3592.745,1039.139Z" style="fill:rgb(229,229,229);fill-opacity:0.4;"/>
            </g>
        </g>
        <g transform="matrix(1,0,0,1,-0.535433,0)">
            <g transform="matrix(1.050298,-0,0,1.050298,3130.16731,431.085903)">
                <path d="M3592.745,1039.139L4155.015,1601.409L3592.745,1601.409L3592.745,1039.139Z" style="fill:rgb(229,229,229);fill-opacity:0.5;"/>
            </g>
        </g>
        <g transform="matrix(1,0,0,1,-0.535433,0)">
            <g transform="matrix(1.050298,-0,0,1.050298,3130.16731,1612.188266)">
                <path d="M3592.745,1039.139L4155.015,1601.409L3592.745,1601.409L3592.745,1039.139Z" style="fill:rgb(229,229,229);fill-opacity:0.5;"/>
            </g>
        </g>
    </g>
</svg>
