<?xml version="1.0" encoding="UTF-8" standalone="no"?>
<!DOCTYPE svg PUBLIC "-//W3C//DTD SVG 1.1//EN" "http://www.w3.org/Graphics/SVG/1.1/DTD/svg11.dtd">
<svg width="100%" height="100%" viewBox="0 0 1908 3178" version="1.1" xmlns="http://www.w3.org/2000/svg" xmlns:xlink="http://www.w3.org/1999/xlink" xml:space="preserve" xmlns:serif="http://www.serif.com/" style="fill-rule:evenodd;clip-rule:evenodd;stroke-linejoin:round;stroke-miterlimit:2;">
    <g transform="matrix(1,0,0,1,-573.237383,-330.228735)">
        <g transform="matrix(0,-0.687339,0.655311,0,-454.330864,3941.509674)">
            <path d="M2480.315,2538.436L2480.315,3507.874L1556.049,3507.874L1556.049,3507.873C1556.049,2972.467 1969.856,2538.436 2480.314,2538.436L2480.315,2538.436Z" style="fill:rgb(123,241,168);fill-opacity:0.5;"/>
        </g>
        <g transform="matrix(0,-0.687339,0.655311,0,-1090.227728,4576.793526)">
            <path d="M2480.315,2538.436L2480.315,3507.874L1556.049,3507.874L1556.049,3507.873C1556.049,2972.467 1969.856,2538.436 2480.314,2538.436L2480.315,2538.436Z" style="fill:rgb(123,241,168);fill-opacity:0.6;"/>
        </g>
        <g transform="matrix(0.687339,-0,-0,0.655311,775.498588,573.841203)">
            <path d="M2480.315,2538.436L2480.315,3507.874L1556.049,3507.874L1556.049,3507.873C1556.049,2972.467 1969.856,2538.436 2480.314,2538.436L2480.315,2538.436Z" style="fill:rgb(123,241,168);fill-opacity:0.75;"/>
        </g>
        <g transform="matrix(-0.687339,-0,0,-0.655311,2912.724595,2629.590708)">
            <path d="M2480.315,2538.436L2480.315,3507.874L1556.049,3507.874L1556.049,3507.873C1556.049,2972.467 1969.856,2538.436 2480.314,2538.436L2480.315,2538.436Z" style="fill:rgb(123,241,168);fill-opacity:0.65;"/>
        </g>
        <g transform="matrix(-0.687339,-0,0,-0.655311,3549.847482,2628.977696)">
            <path d="M2480.315,2538.436L2480.315,3507.874L1556.049,3507.874L1556.049,3507.873C1556.049,2972.467 1969.856,2538.436 2480.314,2538.436L2480.315,2538.436Z" style="fill:rgb(123,241,168);fill-opacity:0.8;"/>
        </g>
        <g transform="matrix(0.687339,0,0,0.655311,775.498588,1209.125054)">
            <path d="M2480.315,2538.436L2480.315,3507.874L1556.049,3507.874L1556.049,3507.873C1556.049,2972.467 1969.856,2538.436 2480.314,2538.436L2480.315,2538.436Z" style="fill:rgb(123,241,168);fill-opacity:0.8;"/>
        </g>
        <g transform="matrix(0.655943,0,0,0.655943,794.720504,1206.906895)">
            <circle cx="1116.502" cy="3023.155" r="484.719" style="fill:rgb(123,241,168);fill-opacity:0.7;"/>
        </g>
        <g transform="matrix(0.655943,0,0,0.655943,1429.391344,-63.660808)">
            <circle cx="1116.502" cy="3023.155" r="484.719" style="fill:rgb(123,241,168);fill-opacity:0.7;"/>
        </g>
        <g transform="matrix(0.655943,0,0,0.655943,793.49448,-699.557671)">
            <circle cx="1116.502" cy="3023.155" r="484.719" style="fill:rgb(123,241,168);fill-opacity:0.5;"/>
        </g>
        <g transform="matrix(0.655943,0,0,0.655943,794.107492,-63.660808)">
            <circle cx="1116.502" cy="3023.155" r="484.719" style="fill:rgb(123,241,168);fill-opacity:0.4;"/>
        </g>
    </g>
</svg>
