<?xml version="1.0" encoding="UTF-8" standalone="no"?>
<!DOCTYPE svg PUBLIC "-//W3C//DTD SVG 1.1//EN" "http://www.w3.org/Graphics/SVG/1.1/DTD/svg11.dtd">
<svg width="100%" height="100%" viewBox="0 0 1772 2953" version="1.1" xmlns="http://www.w3.org/2000/svg" xmlns:xlink="http://www.w3.org/1999/xlink" xml:space="preserve" xmlns:serif="http://www.serif.com/" style="fill-rule:evenodd;clip-rule:evenodd;stroke-linejoin:round;stroke-miterlimit:2;">
    <g transform="matrix(1,0,0,1,-3295.474998,-341.389193)">
        <g transform="matrix(1,0,0,1,-0.535433,0)">
            <g transform="matrix(-1.050298,-0,0,-1.050298,7660.013988,3794.999569)">
                <path d="M3592.745,1039.139L4155.015,1601.409L3592.745,1601.409L3592.745,1039.139Z" style="fill:rgb(229,229,229);fill-opacity:0.4;"/>
            </g>
        </g>
        <g transform="matrix(1,0,0,1,-0.535433,0)">
            <g transform="matrix(-1.050298,-0,0,-1.050298,8250.565169,4385.55075)">
                <path d="M3592.745,1039.139L4155.015,1601.409L3592.745,1601.409L3592.745,1039.139Z" style="fill:rgb(229,229,229);fill-opacity:0.6;"/>
            </g>
        </g>
        <g transform="matrix(1,0,0,1,-0.535433,0)">
            <g transform="matrix(-1.050298,-0,0,-1.050298,8250.565169,3794.999569)">
                <path d="M3592.745,1039.139L4155.015,1601.409L3592.745,1601.409L3592.745,1039.139Z" style="fill:rgb(229,229,229);fill-opacity:0.7;"/>
            </g>
        </g>
        <g transform="matrix(1,0,0,1,-0.535433,0)">
            <g transform="matrix(1.050298,-0,-0,-1.050298,113.109237,3204.448388)">
                <path d="M3592.745,1039.139L4155.015,1601.409L3592.745,1601.409L3592.745,1039.139Z" style="fill:rgb(229,229,229);fill-opacity:0.8;"/>
            </g>
        </g>
        <g transform="matrix(1,0,0,1,-0.535433,0)">
            <g transform="matrix(-0,-1.050298,-1.050298,0,5568.518445,5295.94393)">
                <path d="M3592.745,1039.139L4155.015,1601.409L3592.745,1601.409L3592.745,1039.139Z" style="fill:rgb(229,229,229);fill-opacity:0.8;"/>
            </g>
        </g>
        <g transform="matrix(1,0,0,1,-0.535433,0)">
            <g transform="matrix(-0,-1.050298,-1.050298,0,6159.069626,5295.94393)">
                <path d="M3592.745,1039.139L4155.015,1601.409L3592.745,1601.409L3592.745,1039.139Z" style="fill:rgb(229,229,229);fill-opacity:0.4;"/>
            </g>
        </g>
        <g transform="matrix(1,0,0,1,-0.535433,0)">
            <g transform="matrix(0,1.050298,1.050298,-0,3385.707142,-3432.063183)">
                <path d="M3592.745,1039.139L4155.015,1601.409L3592.745,1601.409L3592.745,1039.139Z" style="fill:rgb(229,229,229);fill-opacity:0.6;"/>
            </g>
        </g>
        <g transform="matrix(1,0,0,1,-0.535433,0)">
            <g transform="matrix(1.050298,0,-0,1.050298,703.660418,1021.637084)">
                <path d="M3592.745,1039.139L4155.015,1601.409L3592.745,1601.409L3592.745,1039.139Z" style="fill:rgb(229,229,229);"/>
            </g>
        </g>
    </g>
</svg>
