<?xml version="1.0" encoding="UTF-8" standalone="no"?>
<!DOCTYPE svg PUBLIC "-//W3C//DTD SVG 1.1//EN" "http://www.w3.org/Graphics/SVG/1.1/DTD/svg11.dtd">
<svg width="100%" height="100%" viewBox="0 0 1273 1271" version="1.1" xmlns="http://www.w3.org/2000/svg" xmlns:xlink="http://www.w3.org/1999/xlink" xml:space="preserve" xmlns:serif="http://www.serif.com/" style="fill-rule:evenodd;clip-rule:evenodd;stroke-linejoin:round;stroke-miterlimit:2;">
    <g transform="matrix(1,0,0,1,-11785.289531,-229.557517)">
        <g transform="matrix(1,0,0,1,-0.535433,0)">
            <g transform="matrix(-0.687339,-0,0,-0.655311,13490.641337,2528.306479)">
                <path d="M2480.315,2538.436L2480.315,3507.874L1556.049,3507.874L1556.049,3507.873C1556.049,2972.467 1969.856,2538.436 2480.314,2538.436L2480.315,2538.436Z" style="fill:rgb(229,229,229);fill-opacity:0.4;"/>
            </g>
        </g>
        <g transform="matrix(1,0,0,1,-0.535433,0)">
            <g transform="matrix(-0.687339,-0,0,-0.655311,14127.764224,3163.59033)">
                <path d="M2480.315,2538.436L2480.315,3507.874L1556.049,3507.874L1556.049,3507.873C1556.049,2972.467 1969.856,2538.436 2480.314,2538.436L2480.315,2538.436Z" style="fill:rgb(229,229,229);fill-opacity:0.8;"/>
            </g>
        </g>
        <g transform="matrix(1,0,0,1,-0.535433,0)">
            <g transform="matrix(0.655943,0,0,0.655943,11371.411222,-800.841901)">
                <circle cx="1116.502" cy="3023.155" r="484.719" style="fill:rgb(229,229,229);fill-opacity:0.6;"/>
            </g>
        </g>
    </g>
</svg>
