<?xml version="1.0" encoding="UTF-8" standalone="no"?>
<!DOCTYPE svg PUBLIC "-//W3C//DTD SVG 1.1//EN" "http://www.w3.org/Graphics/SVG/1.1/DTD/svg11.dtd">
<svg width="100%" height="100%" viewBox="0 0 2067 1477" version="1.1" xmlns="http://www.w3.org/2000/svg" xmlns:xlink="http://www.w3.org/1999/xlink" xml:space="preserve" xmlns:serif="http://www.serif.com/" style="fill-rule:evenodd;clip-rule:evenodd;stroke-linejoin:round;stroke-miterlimit:2;">
    <g transform="matrix(1,0,0,1,-13857.030183,-1753.937008)">
        <g transform="matrix(1,0,0,1,-0.535433,0)">
            <g transform="matrix(0,-0.525149,0.525149,0,14492.965153,3935.938786)">
                <path d="M3592.745,1039.139L4155.015,1601.409L3592.745,1601.409L3592.745,1039.139Z" style="fill:rgb(229,229,229);fill-opacity:0.4;"/>
            </g>
        </g>
        <g transform="matrix(1,0,0,1,-0.535433,0)">
            <g transform="matrix(-0.525149,-0,0,-0.525149,17515.945347,2890.191015)">
                <path d="M3592.745,1039.139L4155.015,1601.409L3592.745,1601.409L3592.745,1039.139Z" style="fill:rgb(229,229,229);fill-opacity:0.9;"/>
            </g>
        </g>
        <g transform="matrix(1,0,0,1,-0.535433,0)">
            <g transform="matrix(-0.525149,-0,0,-0.525149,17515.945347,3185.466605)">
                <path d="M3592.745,1039.139L4155.015,1601.409L3592.745,1601.409L3592.745,1039.139Z" style="fill:rgb(229,229,229);fill-opacity:0.8;"/>
            </g>
        </g>
        <g transform="matrix(1,0,0,1,-0.535433,0)">
            <g transform="matrix(0,0.525149,-0.525149,0,16174.921985,753.037592)">
                <path d="M3592.745,1039.139L4155.015,1601.409L3592.745,1601.409L3592.745,1039.139Z" style="fill:rgb(229,229,229);fill-opacity:0.8;"/>
            </g>
        </g>
        <g transform="matrix(1,0,0,1,-0.535433,0)">
            <g transform="matrix(-0.525149,0,0,0.525149,17811.220938,2094.060954)">
                <path d="M3592.745,1039.139L4155.015,1601.409L3592.745,1601.409L3592.745,1039.139Z" style="fill:rgb(229,229,229);fill-opacity:0.7;"/>
            </g>
        </g>
        <g transform="matrix(1,0,0,1,-0.535433,0)">
            <g transform="matrix(-0,-0.525149,-0.525149,0,16470.197576,4526.489967)">
                <path d="M3592.745,1039.139L4155.015,1601.409L3592.745,1601.409L3592.745,1039.139Z" style="fill:rgb(229,229,229);fill-opacity:0.6;"/>
            </g>
        </g>
        <g transform="matrix(1,0,0,1,-0.535433,0)">
            <g transform="matrix(-0.525149,0,0,0.525149,17811.220938,1503.509773)">
                <path d="M3592.745,1039.139L4155.015,1601.409L3592.745,1601.409L3592.745,1039.139Z" style="fill:rgb(229,229,229);fill-opacity:0.7;"/>
            </g>
        </g>
        <g transform="matrix(1,0,0,1,-0.535433,0)">
            <g transform="matrix(-0,-0.525149,-0.525149,0,16174.921985,3935.938786)">
                <path d="M3592.745,1039.139L4155.015,1601.409L3592.745,1601.409L3592.745,1039.139Z" style="fill:rgb(229,229,229);fill-opacity:0.8;"/>
            </g>
        </g>
        <g transform="matrix(1,0,0,1,-0.535433,0)">
            <g transform="matrix(-0.525149,-0,0,-0.525149,17220.669757,3185.466605)">
                <path d="M3592.745,1039.139L4155.015,1601.409L3592.745,1601.409L3592.745,1039.139Z" style="fill:rgb(229,229,229);fill-opacity:0.5;"/>
            </g>
        </g>
        <g transform="matrix(1,0,0,1,-0.535433,0)">
            <g transform="matrix(-0,-0.525149,0.525149,-0,14492.965153,5117.041148)">
                <path d="M3592.745,1039.139L4155.015,1601.409L3592.745,1601.409L3592.745,1039.139Z" style="fill:rgb(229,229,229);fill-opacity:0.6;"/>
            </g>
        </g>
        <g transform="matrix(1,0,0,1,-0.535433,0)">
            <g transform="matrix(0,0.525149,-0.525149,0,16174.921985,1048.313182)">
                <path d="M3592.745,1039.139L4155.015,1601.409L3592.745,1601.409L3592.745,1039.139Z" style="fill:rgb(229,229,229);fill-opacity:0.9;"/>
            </g>
        </g>
        <g transform="matrix(1,0,0,1,-0.535433,0)">
            <g transform="matrix(0.525149,-0,0,0.525149,13742.492972,2389.336544)">
                <path d="M3592.745,1039.139L4155.015,1601.409L3592.745,1601.409L3592.745,1039.139Z" style="fill:rgb(229,229,229);fill-opacity:0.3;"/>
            </g>
        </g>
        <g transform="matrix(1,0,0,1,-0.535433,0)">
            <g transform="matrix(0.525149,0,-0,0.525149,11970.839429,1798.785363)">
                <path d="M3592.745,1039.139L4155.015,1601.409L3592.745,1601.409L3592.745,1039.139Z" style="fill:rgb(229,229,229);fill-opacity:0.3;"/>
            </g>
        </g>
        <g transform="matrix(1,0,0,1,-0.535433,0)">
            <g transform="matrix(0,0.525149,-0.525149,0,14993.819623,753.037592)">
                <path d="M3592.745,1039.139L4155.015,1601.409L3592.745,1601.409L3592.745,1039.139Z" style="fill:rgb(229,229,229);fill-opacity:0.4;"/>
            </g>
        </g>
        <g transform="matrix(1,0,0,1,-0.535433,0)">
            <g transform="matrix(-0.525149,0,-0,-0.525149,16039.567394,3776.017786)">
                <path d="M3592.745,1039.139L4155.015,1601.409L3592.745,1601.409L3592.745,1039.139Z" style="fill:rgb(229,229,229);fill-opacity:0.4;"/>
            </g>
        </g>
        <g transform="matrix(1,0,0,1,-0.535433,0)">
            <g transform="matrix(0,-0.525149,0.525149,0,13311.86279,4231.214377)">
                <path d="M3592.745,1039.139L4155.015,1601.409L3592.745,1601.409L3592.745,1039.139Z" style="fill:rgb(229,229,229);fill-opacity:0.4;"/>
            </g>
        </g>
        <g transform="matrix(1,0,0,1,-0.535433,0)">
            <g transform="matrix(0,-0.525149,0.525149,0,14197.689562,4526.489967)">
                <path d="M3592.745,1039.139L4155.015,1601.409L3592.745,1601.409L3592.745,1039.139Z" style="fill:rgb(229,229,229);fill-opacity:0.8;"/>
            </g>
        </g>
        <g transform="matrix(1,0,0,1,-0.535433,0)">
            <g transform="matrix(0,-0.525149,0.525149,0,13607.138381,4821.765558)">
                <path d="M3592.745,1039.139L4155.015,1601.409L3592.745,1601.409L3592.745,1039.139Z" style="fill:rgb(229,229,229);fill-opacity:0.6;"/>
            </g>
        </g>
        <g transform="matrix(1,0,0,1,-0.535433,0)">
            <g transform="matrix(0,0.525149,-0.525149,0,15289.095214,1048.313182)">
                <path d="M3592.745,1039.139L4155.015,1601.409L3592.745,1601.409L3592.745,1039.139Z" style="fill:rgb(229,229,229);fill-opacity:0.3;"/>
            </g>
        </g>
        <g transform="matrix(1,0,0,1,-0.535433,0)">
            <g transform="matrix(0,0.525149,-0.525149,0,14993.819623,1048.313182)">
                <path d="M3592.745,1039.139L4155.015,1601.409L3592.745,1601.409L3592.745,1039.139Z" style="fill:rgb(229,229,229);fill-opacity:0.3;"/>
            </g>
        </g>
        <g transform="matrix(1,0,0,1,-0.535433,0)">
            <g transform="matrix(-0.525149,0,0,0.525149,16630.118576,1503.509773)">
                <path d="M3592.745,1039.139L4155.015,1601.409L3592.745,1601.409L3592.745,1039.139Z" style="fill:rgb(229,229,229);fill-opacity:0.3;"/>
            </g>
        </g>
        <g transform="matrix(1,0,0,1,-0.535433,0)">
            <g transform="matrix(-0.525149,0,0,0.525149,17220.669757,1503.509773)">
                <path d="M3592.745,1039.139L4155.015,1601.409L3592.745,1601.409L3592.745,1039.139Z" style="fill:rgb(229,229,229);fill-opacity:0.7;"/>
            </g>
        </g>
        <g transform="matrix(1,0,0,1,-0.535433,0)">
            <g transform="matrix(0.525149,-0,-0,-0.525149,12856.6662,2890.191015)">
                <path d="M3592.745,1039.139L4155.015,1601.409L3592.745,1601.409L3592.745,1039.139Z" style="fill:rgb(229,229,229);fill-opacity:0.6;"/>
            </g>
        </g>
        <g transform="matrix(1,0,0,1,-0.535433,0)">
            <g transform="matrix(-0.525149,0,0,0.525149,16630.118576,1208.234182)">
                <path d="M3592.745,1039.139L4155.015,1601.409L3592.745,1601.409L3592.745,1039.139Z" style="fill:rgb(229,229,229);fill-opacity:0.4;"/>
            </g>
        </g>
        <g transform="matrix(1,0,0,1,-0.535433,0)">
            <g transform="matrix(-0,0.525149,0.525149,0,13607.138381,-132.78918)">
                <path d="M3592.745,1039.139L4155.015,1601.409L3592.745,1601.409L3592.745,1039.139Z" style="fill:rgb(229,229,229);fill-opacity:0.4;"/>
            </g>
        </g>
        <g transform="matrix(1,0,0,1,-0.535433,0)">
            <g transform="matrix(0,0.525149,-0.525149,0,15584.370804,457.762001)">
                <path d="M3592.745,1039.139L4155.015,1601.409L3592.745,1601.409L3592.745,1039.139Z" style="fill:rgb(229,229,229);fill-opacity:0.5;"/>
            </g>
        </g>
        <g transform="matrix(1,0,0,1,-0.535433,0)">
            <g transform="matrix(-0,-0.525149,0.525149,-0,14197.689562,5117.041148)">
                <path d="M3592.745,1039.139L4155.015,1601.409L3592.745,1601.409L3592.745,1039.139Z" style="fill:rgb(229,229,229);fill-opacity:0.5;"/>
            </g>
        </g>
        <g transform="matrix(1,0,0,1,-0.535433,0)">
            <g transform="matrix(0.525149,-0,0,0.525149,12856.6662,2094.060954)">
                <path d="M3592.745,1039.139L4155.015,1601.409L3592.745,1601.409L3592.745,1039.139Z" style="fill:rgb(229,229,229);fill-opacity:0.6;"/>
            </g>
        </g>
    </g>
</svg>
