<?xml version="1.0" encoding="UTF-8" standalone="no"?>
<!DOCTYPE svg PUBLIC "-//W3C//DTD SVG 1.1//EN" "http://www.w3.org/Graphics/SVG/1.1/DTD/svg11.dtd">
<svg width="100%" height="100%" viewBox="0 0 1115 835" version="1.1" xmlns="http://www.w3.org/2000/svg" xmlns:xlink="http://www.w3.org/1999/xlink" xml:space="preserve" xmlns:serif="http://www.serif.com/" style="fill-rule:evenodd;clip-rule:evenodd;stroke-linejoin:round;stroke-miterlimit:2;">
    <g transform="matrix(1,0,0,1,-14403.520183,-33.072057)">
        <g transform="matrix(1,0,0,1,-0.535433,0)">
            <g transform="matrix(0.300518,0,-0,0.286515,14492.220047,-137.715106)">
                <path d="M2480.315,2538.436L2480.315,3507.874L1556.049,3507.874L1556.049,3507.873C1556.049,2972.468 1969.857,2538.436 2480.314,2538.436C2480.315,2538.436 2480.315,2538.436 2480.315,2538.436Z" style="fill:rgb(123,241,168);fill-opacity:0.6;"/>
            </g>
        </g>
        <g transform="matrix(1,0,0,1,-0.535433,0)">
            <g transform="matrix(0,-0.300518,0.286515,0,13954.78321,1334.234658)">
                <path d="M2480.315,2538.436L2480.315,3507.874L1556.049,3507.874L1556.049,3507.873C1556.049,2972.468 1969.857,2538.436 2480.314,2538.436C2480.315,2538.436 2480.315,2538.436 2480.315,2538.436Z" style="fill:rgb(123,241,168);fill-opacity:0.5;"/>
            </g>
        </g>
        <g transform="matrix(1,0,0,1,-0.535433,0)">
            <g transform="matrix(-0.300518,0,-0,-0.286515,15705.218217,1038.12888)">
                <path d="M2480.315,2538.436L2480.315,3507.874L1556.049,3507.874L1556.049,3507.873C1556.049,2972.468 1969.857,2538.436 2480.314,2538.436C2480.315,2538.436 2480.315,2538.436 2480.315,2538.436Z" style="fill:rgb(123,241,168);fill-opacity:0.4;"/>
            </g>
        </g>
        <g transform="matrix(1,0,0,1,-0.535433,0)">
            <g transform="matrix(-0.300518,0,-0,-0.286515,15427.460019,1038.12888)">
                <path d="M2480.315,2538.436L2480.315,3507.874L1556.049,3507.874C1556.049,3507.874 1556.049,3507.874 1556.049,3507.873C1556.049,2972.468 1969.857,2538.436 2480.314,2538.436C2480.315,2538.436 2480.315,2538.436 2480.315,2538.436Z" style="fill:rgb(123,241,168);fill-opacity:0.8;"/>
            </g>
        </g>
        <g transform="matrix(1,0,0,1,-0.535433,0)">
            <g transform="matrix(-0,0.300518,-0.286515,-0,16245.893833,-156.521711)">
                <path d="M2480.315,2538.436L2480.315,3507.874L1556.049,3507.874L1556.049,3507.873C1556.049,2972.468 1969.857,2538.436 2480.314,2538.436L2480.315,2538.436Z" style="fill:rgb(123,241,168);fill-opacity:0.9;"/>
            </g>
        </g>
        <g transform="matrix(1,0,0,1,-0.535433,0)">
            <g transform="matrix(0.286791,-0,0,0.286791,14500.624235,-417.17017)">
                <circle cx="1116.502" cy="3023.155" r="484.719" style="fill:rgb(123,241,168);fill-opacity:0.65;"/>
            </g>
        </g>
        <g transform="matrix(1,0,0,1,-0.535433,0)">
            <g transform="matrix(0.286791,-0,0,0.286791,14222.866037,-417.438191)">
                <circle cx="1116.502" cy="3023.155" r="484.719" style="fill:rgb(123,241,168);fill-opacity:0.75;"/>
            </g>
        </g>
        <g transform="matrix(1,0,0,1,-0.535433,0)">
            <g transform="matrix(0.286791,-0,0,0.286791,15056.408651,-138.416907)">
                <circle cx="1116.502" cy="3023.155" r="484.719" style="fill:rgb(123,241,168);fill-opacity:0.8;"/>
            </g>
        </g>
        <g transform="matrix(1,0,0,1,-0.535433,0)">
            <g transform="matrix(0.286791,-0,0,0.286791,14222.866037,-139.411972)">
                <circle cx="1116.502" cy="3023.155" r="484.719" style="fill:rgb(123,241,168);fill-opacity:0.3;"/>
            </g>
        </g>
    </g>
</svg>
