<?xml version="1.0" encoding="UTF-8" standalone="no"?>
<!DOCTYPE svg PUBLIC "-//W3C//DTD SVG 1.1//EN" "http://www.w3.org/Graphics/SVG/1.1/DTD/svg11.dtd">
<svg width="100%" height="100%" viewBox="0 0 582 563" version="1.1" xmlns="http://www.w3.org/2000/svg" xmlns:xlink="http://www.w3.org/1999/xlink" xml:space="preserve" xmlns:serif="http://www.serif.com/" style="fill-rule:evenodd;clip-rule:evenodd;stroke-linejoin:round;stroke-miterlimit:2;">
    <g transform="matrix(1,0,0,1,-14909.43164,-908.968907)">
        <g transform="matrix(1,0,0,1,-0.535433,0)">
            <g transform="matrix(1,0,0,1,14877.414069,903.760281)">
                <path d="M373.101,414.503C373.112,420.07 373.458,421.951 371.597,422.717C370.671,423.099 355.508,427.095 352.601,427.88C349.896,428.611 349.912,428.656 349.506,428.663C347.421,428.702 346.639,426.345 345.16,423.699C344.618,422.728 338.776,412.275 338.407,411.551C335.673,406.187 334.933,405.914 334.402,405.719C333.045,405.219 332.992,405.49 316.5,405.471C312.876,405.467 311.666,405.104 310.419,407.452C309.736,408.737 302.841,421.021 302.576,421.542C299.029,428.501 298.214,428.589 297.52,428.665C296.428,428.784 284.703,425.454 283.598,425.14C274.936,422.679 273.597,422.967 273.349,420.516C273.206,419.108 273.967,397.966 273.652,396.468C273.304,394.809 272.973,394.865 262.407,388.659C254.624,384.087 254.295,384.094 253.495,384.11C252.544,384.13 252.543,384.249 242.773,389.944C240.267,391.405 240.348,391.521 232.754,395.953C229.638,397.771 229.347,396.478 225.4,392.601C222.823,390.07 213.122,380.413 212.966,380.176C211.852,378.492 213.556,376.486 215.323,373.396C216.415,371.488 224.813,358.146 225.206,356.445C225.532,355.032 225.266,354.959 218.678,343.398C214.661,336.347 214.379,336.245 213.709,336.003C211.483,335.197 189.869,336.233 188.408,335.889C186.322,335.399 186.771,334.498 184.463,326.51C184.188,325.56 182.445,319.526 181.267,314.563C180.259,310.315 181.448,310.199 185.333,308.197C187.061,307.306 197.577,301.36 199.444,300.402C204.065,298.028 203.879,297.408 203.953,295.528C204.05,293.048 203.847,284.149 204.022,278.501C204.176,273.547 202.366,273.523 199.735,272.074C198.297,271.283 182.504,262.588 181.824,262.065C180.398,260.968 180.926,258.884 180.995,258.609C181.386,257.067 181.562,257.125 186.199,239.424C187.102,235.977 187.942,236.249 191.501,236.314C212.53,236.692 213.823,237.038 215.028,235.182C215.392,234.621 220.482,225.595 220.954,224.759C222.235,222.487 225.77,217.551 225.173,215.59C224.653,213.884 220.493,207.805 214.137,196.715C212.579,193.997 211.768,193.512 214.05,191.09C215.124,189.948 215.098,189.93 227.547,177.547C229.838,175.267 230.548,174.975 232.642,176.24C234.21,177.188 251.314,187.529 252.341,187.91C254.586,188.743 256.044,187.194 261.743,183.939C273.175,177.408 273.139,177.219 273.439,176.474C274.034,174.998 273.638,171.967 273.452,158.501C273.372,152.695 272.592,150.288 275.456,149.377C278.265,148.484 278.831,148.56 287.398,146.123C297.051,143.377 297.474,143.559 298.291,143.911C299.45,144.41 303.588,152.632 305.738,156.37C311.092,165.679 310.679,166.27 312.444,166.702C313.463,166.952 319.658,166.85 331.503,166.839C335.564,166.835 335.53,166.057 337.436,162.465C340.17,157.313 340.35,157.43 343.099,152.287C343.437,151.656 347.023,144.948 347.499,144.499C349.24,142.859 349.651,143.79 365.427,147.796C372.268,149.533 372.415,149.822 372.694,150.372C373.708,152.372 372.644,173.914 372.891,175.455C373.329,178.196 374.342,177.595 386.3,184.848C392.303,188.489 392.827,188.364 393.441,188.218C395.253,187.786 413.87,175.746 415.509,175.552C417.258,175.344 418.285,176.855 421.754,180.243C422.682,181.15 431.898,190.154 433.184,191.747C434.961,193.95 432.607,196.181 428.854,202.707C421.866,214.861 420.214,215.337 421.824,218.329C422.036,218.723 431.38,234.958 431.689,235.348C433.015,237.022 434.195,236.58 447.5,236.469C457.781,236.383 459.086,235.545 459.996,238.318C460.757,240.64 461.698,244.751 463.831,252.409C465.843,259.631 465.805,259.878 465.706,260.537C465.514,261.806 464.661,262.104 457.352,266.215C455.841,267.065 451.234,269.558 450.701,269.846C443.446,273.773 443.282,274.088 442.944,274.739C442.219,276.134 442.614,279.522 442.503,293.5C442.476,296.972 442.105,297.701 446.685,300.167C451.591,302.809 458.573,306.74 459.602,307.319C465.015,310.367 466.298,310.279 465.51,313.502C464.244,318.684 460.837,330.962 460.417,332.477C459.611,335.382 459.516,335.983 456.502,335.944C433.279,335.645 432.95,335.417 431.788,336.747C431.313,337.289 423.688,350.577 422.994,351.785C420.926,355.39 420.58,355.799 422.756,359.347C423.639,360.787 433.007,376.064 433.581,377.464C434.646,380.062 432.802,380.889 428.86,384.856C423.158,390.596 417.507,396.496 416.565,396.716C415.854,396.882 415.059,397.068 408.352,392.74C406.222,391.366 398.006,386.616 395.694,385.165C392.845,383.376 392.412,383.845 386.426,387.376C380.036,391.145 373.884,394.278 373.334,395.398C372.601,396.889 372.958,396.987 373.101,414.503ZM397.042,293.466C397.124,292.151 397.443,288.731 397.17,281.518C396.519,264.299 388.449,249.713 383.776,243.304C382.739,241.882 376.47,233.284 368.565,227.416C359.483,220.674 354.278,218.635 348.527,216.429C338.872,212.725 326.666,211.608 319.475,212.089C309.253,212.772 281.589,216.039 261.785,244.686C252.526,258.08 249.622,273.507 249.209,281.481C247.846,307.781 259.679,324.338 262.027,327.824C279.937,354.42 307.492,358.521 308.456,358.725C336.993,364.751 359.657,352.024 368.671,344.718C369.158,344.324 372.914,341.279 374.625,339.636C395.749,319.347 397.007,293.779 397.042,293.466Z" style="fill:rgb(0,201,80);"/>
                <path d="M391.077,477.432C394.507,458.365 411.024,450.428 420.506,449.56C434.452,448.283 442.22,454.337 442.511,454.477C444.436,455.403 444.912,454.684 444.89,452.535C444.829,446.46 444.853,429.774 444.85,408.498C444.849,401.193 444.265,398.775 450.502,398.761C455.142,398.75 497.466,398.652 508.497,398.766C514.537,398.828 513.692,403.331 512.048,405.09C508.238,409.167 504.009,412.139 502.403,423.49C501.963,426.603 502.377,434.952 507.339,441.616C518.772,456.975 537.476,455.183 547.279,446.259C548.404,445.235 555.171,439.074 556.186,429.459C557.831,413.875 547.744,406.247 546.805,405.22C543.535,401.644 546.64,399.311 548.563,398.859C549.429,398.656 583.325,398.82 598.503,398.759C610.987,398.71 613.244,398.252 613.88,402.45C614.001,403.255 613.96,403.262 613.959,510.5C613.959,519.576 615.823,538.162 599.899,553.907C586.575,567.081 572.453,567.787 566.503,567.883C562.783,567.944 467.14,567.896 458.5,567.892C448.032,567.886 446.156,568.139 445.247,565.598C444.782,564.298 444.85,564.255 444.85,526.5C444.85,512.668 445.003,512.409 444.215,511.977C442.906,511.259 442.909,511.969 441.656,512.795C432.728,518.684 414.298,520.785 401.087,507.942C387.869,495.09 390.725,480.294 391.077,477.432ZM606.951,518.501C607.103,511.386 606.999,410.036 606.96,408.468C606.895,405.8 606.173,405.77 603.499,405.774C563.04,405.845 563.044,405.622 559.527,405.692C558.449,405.713 558.182,405.554 557.892,406.589C557.753,407.085 558.867,409.045 558.981,409.244C559.493,410.146 562.739,415.856 563.12,421.534C563.444,426.376 563.575,431.212 561.752,436.589C553.209,461.787 521.323,467.944 504.146,448.82C500.491,444.752 499.351,441.95 499.193,441.666C494.963,434.092 495.034,425.731 495.489,422.499C497.139,410.795 500.683,408.387 501.018,407.346C501.237,406.665 500.887,405.943 500.35,405.797C500.096,405.728 497.726,405.738 497.497,405.744C495.207,405.805 455.538,405.757 454.51,405.772C452.677,405.798 452.337,405.789 451.891,407.561C451.803,407.912 451.835,420.383 451.835,439.5C451.835,464.382 451.949,464.541 450.987,465.845C448.247,469.563 445.589,465.866 442.688,463.292C430.613,452.579 414.317,455.282 405.368,464.372C390.196,479.78 398.661,504.65 417.509,509.465C435.001,513.934 444.597,501.498 445.592,500.602C447.734,498.67 450.296,499.615 451.038,500.807C452.168,502.621 451.774,502.802 451.834,546.499C451.852,559.536 451.489,560.318 453.414,560.802C453.929,560.931 453.935,560.917 525.5,560.917C570.356,560.917 570.43,561.093 576.524,559.595C590.599,556.135 607.589,541.829 606.951,518.501Z" style="fill:rgb(0,201,80);"/>
                <path d="M144.098,486.528C145.449,504.92 160.037,512.971 167.435,514.745C182.627,518.388 191.624,511.359 194.458,509.445C197.068,507.683 198.295,505.703 198.543,505.589C198.75,505.495 200.176,506.145 200.203,506.56C200.26,507.433 199.989,507.429 199.984,517.5C199.965,559.671 199.967,559.818 200.031,563.497C200.037,563.812 200.087,566.725 199.376,567.378C198.739,567.965 198.599,567.892 168.5,567.892C74.145,567.892 74.128,567.945 71.501,567.495C51.757,564.114 38.403,550.453 34.077,533.605C32.419,527.149 32.599,527.066 32.599,482.5C32.594,456.5 32.589,430.5 32.584,404.5C32.585,403.156 32.496,401.961 33.213,401.224C33.952,400.464 34.127,400.584 53.5,400.583C56.795,400.582 91.444,400.585 91.503,400.587C94.032,400.703 94.12,400.953 94.536,400.553C95.297,399.819 94.498,398.692 94.406,398.562C94.242,398.331 87.845,393.629 85.349,382.533C84.876,380.431 84.367,373.839 85.392,369.475C91.585,343.098 123.491,336.28 140.346,355.631C147.683,364.053 147.803,373.797 147.823,375.495C147.97,387.42 141.909,395.259 138.351,398.403C137.823,398.869 137.685,398.814 137.626,399.515C137.51,400.901 138.084,400.731 139.464,400.71C143.947,400.642 149.731,400.553 195.5,400.583C198.762,400.585 199.941,400.221 199.979,403.48C200.109,414.676 199.723,449.224 200.181,461.462C200.209,462.22 200.331,462.361 199.642,462.701C199.333,462.854 199.043,463.126 198.698,463.126C198.452,463.125 194.637,456.817 183.446,453.709C174.914,451.339 162.783,453.064 154.603,460.613C144.323,470.102 143.722,480.392 144.098,486.528Z" style="fill:rgb(0,201,80);"/>
                <path d="M446.536,5.498C447.034,5.457 447.002,5.66 447.5,5.619C447.967,5.58 447.897,5.365 448.353,5.348C448.744,5.334 449.119,5.521 449.51,5.544C449.546,5.547 457.194,5.527 458.5,5.527C572.881,5.534 572.889,5.449 577.394,5.821C589.497,6.821 598.988,15.755 602.847,20.203C613.586,32.58 613.786,45.907 613.902,48.48C614.215,55.465 613.897,163.881 614.042,168.496C614.15,171.929 612.932,171.692 609.501,171.705C584.492,171.8 584.514,171.631 559.501,171.697C552.38,171.716 551.642,171.195 551.633,172.514C551.628,173.35 551.8,173.319 552.188,173.671C554.256,175.549 555.365,177.096 555.601,177.426C560.075,183.669 560.785,187.577 561.541,192.495C562.722,200.183 559.968,207.879 557.787,211.661C554.444,217.455 550.595,220.326 549.812,220.91C545.147,224.39 543.356,225.026 540.665,225.952C539.442,226.373 532.339,228.816 524.543,227.273C506.674,223.735 499.816,208.062 499.166,201.548C499.006,199.949 498.075,193.471 499.865,187.603C503.155,176.817 508.991,173.35 509.06,173.22C509.102,173.14 509.111,171.956 509.072,171.904C508.762,171.481 506.696,171.609 506.489,171.622C503.862,171.786 448.751,171.712 448.47,171.671C448.3,171.646 447.049,171.465 446.717,170.421C446.41,169.453 446.631,137.134 446.567,117.5C446.544,110.551 445.992,109.388 447.498,109.44C448.253,109.466 448.213,109.592 448.714,110.163C456.869,119.457 474.831,123.551 488.412,114.37C504.368,103.583 507.325,81.71 494.782,67.248C481.458,51.883 458.752,54.565 448.715,65.842C447.303,67.429 446.315,66.644 446.421,64.508C446.655,59.793 446.683,59.223 446.536,5.498Z" style="fill:rgb(0,201,80);"/>
                <path d="M200.059,128.499C200.043,169.641 200.147,169.69 199.767,170.637C199.26,171.899 198.799,171.714 184.5,171.711C144.925,171.702 144.936,171.641 141.497,171.745C139.241,171.814 139.237,172.011 138.367,171.73C136.584,171.155 138.315,169.586 138.45,169.464C146.154,162.479 148.829,150.978 147.576,143.489C147.109,140.697 146.332,132.254 137.811,124.174C124.756,111.796 102.283,112.805 90.766,128.686C79.199,144.637 86.57,162.983 93.821,169.285C94.433,169.817 94.684,169.668 94.783,170.466C94.921,171.582 94.717,171.747 93.604,171.809C91.679,171.916 91.698,171.702 69.501,171.711C38.203,171.722 38.212,171.756 35.492,171.695C31.969,171.617 32.607,169.831 32.601,164.5C32.592,155.3 32.489,51.947 32.616,49.504C32.868,44.679 32.89,37.546 38.909,26.741C41.011,22.966 51.698,7.864 68.623,5.871C71.606,5.52 71.618,5.516 190.5,5.529C192.841,5.529 195.458,5.532 195.499,5.533C199.282,5.56 199.445,4.853 199.934,5.447C200.102,5.652 199.877,47.379 200.065,59.501C200.091,61.163 199.768,65.998 199.944,66.309C199.997,66.402 201.21,66.641 201.522,66.552C201.861,66.454 206.05,60.592 215.557,57.708C219.937,56.379 237.793,53.182 249.796,69.28C259.424,82.193 257.538,99.604 246.562,110.563C240.464,116.652 224.836,125.232 207.435,114.603C204.202,112.629 201.657,109.504 201.514,109.469C200.606,109.245 200.598,109.467 200.06,110.219C199.624,110.83 200.057,112.968 200.03,114.496C200.021,115.022 199.983,126.122 200.059,128.499Z" style="fill:rgb(0,201,80);"/>
            </g>
        </g>
    </g>
</svg>
